<svg width="40" height="40" viewBox="0 0 40 40" fill="none" xmlns="http://www.w3.org/2000/svg">
<g clip-path="url(#clip0_4953_12640)">
<rect width="40" height="40" rx="8" fill="white"/>
<path d="M29.3613 16.1824C29.2188 16.2904 26.7031 17.6754 26.7031 20.7549C26.7031 24.3168 29.9042 25.577 30 25.6082C29.9853 25.685 29.4915 27.3339 28.3122 29.0141C27.2608 30.4926 26.1626 31.9688 24.4921 31.9688C22.8215 31.9688 22.3916 31.0207 20.4631 31.0207C18.5837 31.0207 17.9155 32 16.3874 32C14.8594 32 13.7931 30.6319 12.5673 28.9517C11.1473 26.9787 10 23.9136 10 21.0045C10 16.3384 13.1053 13.8638 16.1614 13.8638C17.7853 13.8638 19.1389 14.9055 20.1585 14.9055C21.1289 14.9055 22.6422 13.8014 24.4896 13.8014C25.1898 13.8014 27.7054 13.8638 29.3613 16.1824ZM23.6126 11.826C24.3766 10.9403 24.9171 9.71137 24.9171 8.48245C24.9171 8.31203 24.9023 8.13921 24.8704 8C23.6273 8.0456 22.1484 8.80888 21.2566 9.81938C20.5564 10.5971 19.903 11.826 19.903 13.0717C19.903 13.2589 19.9349 13.4461 19.9496 13.5062C20.0283 13.5206 20.156 13.5374 20.2837 13.5374C21.3991 13.5374 22.8019 12.8077 23.6126 11.826Z" fill="black"/>
</g>
<defs>
<clipPath id="clip0_4953_12640">
<rect width="40" height="40" rx="8" fill="white"/>
</clipPath>
</defs>
</svg>
