<svg width="25" height="26" viewBox="0 0 25 26" fill="none" xmlns="http://www.w3.org/2000/svg">
<g clip-path="url(#clip0_6654_10738)">
<path d="M20 14H16V18H14V14H10V12H14V8H16V12H20M21 5H9C8.46957 5 7.96086 5.21071 7.58579 5.58579C7.21071 5.96086 7 6.46957 7 7V19C7 19.5304 7.21071 20.0391 7.58579 20.4142C7.96086 20.7893 8.46957 21 9 21H21C21.5304 21 22.0391 20.7893 22.4142 20.4142C22.7893 20.0391 23 19.5304 23 19V7C23 6.46957 22.7893 5.96086 22.4142 5.58579C22.0391 5.21071 21.5304 5 21 5ZM5 9H3V23C3 23.5304 3.21071 24.0391 3.58579 24.4142C3.96086 24.7893 4.46957 25 5 25H19V23H5V9Z" fill="#8F95B2"/>
</g>
<defs>
<clipPath id="clip0_6654_10738">
<rect width="20" height="20" fill="white" transform="translate(3 5)"/>
</clipPath>
</defs>
</svg>
