<svg width="40" height="40" viewBox="0 0 40 40" fill="none" xmlns="http://www.w3.org/2000/svg">
<rect width="40" height="40" rx="8" fill="white"/>
<path d="M18.02 31.88C12.32 30.86 8 25.94 8 20C8 13.4 13.4 8 20 8C26.6 8 32 13.4 32 20C32 25.94 27.68 30.86 21.98 31.88L21.32 31.34H18.68L18.02 31.88Z" fill="url(#paint0_linear_4953_12643)"/>
<path d="M24.6798 23.36L25.2198 20H22.0398V17.66C22.0398 16.7 22.3998 15.98 23.8398 15.98H25.3998V12.92C24.5598 12.8 23.5998 12.68 22.7598 12.68C19.9998 12.68 18.0798 14.36 18.0798 17.36V20H15.0798V23.36H18.0798V31.82C18.7398 31.94 19.3998 32 20.0598 32C20.7198 32 21.3798 31.94 22.0398 31.82V23.36H24.6798Z" fill="white"/>
<defs>
<linearGradient id="paint0_linear_4953_12643" x1="20.0006" y1="31.1654" x2="20.0006" y2="7.99558" gradientUnits="userSpaceOnUse">
<stop stop-color="#0062E0"/>
<stop offset="1" stop-color="#19AFFF"/>
</linearGradient>
</defs>
</svg>
