<svg width="26" height="26" viewBox="0 0 26 26" fill="none" xmlns="http://www.w3.org/2000/svg">
<path fill-rule="evenodd" clip-rule="evenodd" d="M16.079 6.71909C16.4028 6.72353 16.7273 6.72798 17.053 6.73131C20.5523 6.73131 23.1036 9.22604 23.1036 12.6711V17.0963C23.1036 20.5414 20.5523 23.0362 17.053 23.0362C15.6513 23.0659 14.2496 23.0758 12.8378 23.0758C11.426 23.0758 10.0041 23.0659 8.60235 23.0362C5.10309 23.0362 2.55176 20.5414 2.55176 17.0963V12.6711C2.55176 9.22604 5.10309 6.73131 8.61243 6.73131C9.93348 6.71151 11.2848 6.69171 12.6562 6.69171V6.52342C12.6562 5.84034 12.0814 5.28595 11.3957 5.28595H10.3974C9.25783 5.28595 8.33007 4.37518 8.33007 3.26641C8.33007 2.86052 8.67294 2.52393 9.0864 2.52393C9.50994 2.52393 9.84272 2.86052 9.84272 3.26641C9.84272 3.5634 10.0948 3.80099 10.3974 3.80099H11.3957C12.9184 3.81089 14.1588 5.02856 14.1689 6.51352V6.70161C14.8046 6.70161 15.4403 6.71033 16.079 6.71909ZM11.6478 15.6213H10.589V16.6706C10.589 17.0765 10.2461 17.4131 9.83263 17.4131C9.40909 17.4131 9.07631 17.0765 9.07631 16.6706V15.6213H8.00737C7.59392 15.6213 7.25105 15.2946 7.25105 14.8788C7.25105 14.4729 7.59392 14.1363 8.00737 14.1363H9.07631V13.0968C9.07631 12.6909 9.40909 12.3544 9.83263 12.3544C10.2461 12.3544 10.589 12.6909 10.589 13.0968V14.1363H11.6478C12.0613 14.1363 12.4041 14.4729 12.4041 14.8788C12.4041 15.2946 12.0613 15.6213 11.6478 15.6213ZM15.9336 13.9482H16.0345C16.4479 13.9482 16.7908 13.6215 16.7908 13.2057C16.7908 12.7998 16.4479 12.4633 16.0345 12.4633H15.9336C15.5101 12.4633 15.1773 12.7998 15.1773 13.2057C15.1773 13.6215 15.5101 13.9482 15.9336 13.9482ZM17.6581 17.3537H17.7589C18.1724 17.3537 18.5152 17.027 18.5152 16.6112C18.5152 16.2054 18.1724 15.8688 17.7589 15.8688H17.6581C17.2335 15.8688 16.9017 16.2054 16.9017 16.6112C16.9017 17.027 17.2335 17.3537 17.6581 17.3537Z" fill="#FFC327"/>
</svg>
