<svg width="40" height="40" viewBox="0 0 40 40" fill="none" xmlns="http://www.w3.org/2000/svg">
<rect width="40" height="40" rx="8" fill="white"/>
<g clip-path="url(#clip0_4953_12633)">
<path d="M29.7874 20.225C29.7874 19.5666 29.7291 18.9416 29.6291 18.3333H20.2124V22.0916H25.6041C25.3624 23.325 24.6541 24.3666 23.6041 25.075V27.575H26.8207C28.7041 25.8333 29.7874 23.2666 29.7874 20.225Z" fill="#4285F4"/>
<path d="M20.2124 30C22.9124 30 25.1707 29.1 26.8207 27.575L23.604 25.075C22.704 25.675 21.5624 26.0417 20.2124 26.0417C17.604 26.0417 15.3957 24.2833 14.604 21.9083H11.2874V24.4833C12.929 27.75 16.304 30 20.2124 30Z" fill="#34A853"/>
<path d="M14.6041 21.9083C14.3957 21.3083 14.2874 20.6667 14.2874 20C14.2874 19.3333 14.4041 18.6917 14.6041 18.0917V15.5167H11.2874C10.6041 16.8667 10.2124 18.3833 10.2124 20C10.2124 21.6167 10.6041 23.1333 11.2874 24.4833L14.6041 21.9083Z" fill="#FBBC05"/>
<path d="M20.2124 13.9583C21.6874 13.9583 23.004 14.4667 24.0457 15.4583L26.8957 12.6083C25.1707 10.9917 22.9124 10 20.2124 10C16.304 10 12.929 12.25 11.2874 15.5167L14.604 18.0917C15.3957 15.7167 17.604 13.9583 20.2124 13.9583Z" fill="#EA4335"/>
</g>
<defs>
<clipPath id="clip0_4953_12633">
<rect width="20" height="20" fill="white" transform="translate(10 10)"/>
</clipPath>
</defs>
</svg>
