<svg width="25" height="25" viewBox="0 0 25 25" fill="none" xmlns="http://www.w3.org/2000/svg">
<path fill-rule="evenodd" clip-rule="evenodd" d="M16.5564 2.83854C17.2048 2.83854 17.8522 2.93 18.4677 3.13654C22.2605 4.36966 23.6272 8.5314 22.4856 12.1691C21.8382 14.028 20.7798 15.7245 19.3936 17.1108C17.4093 19.0324 15.2318 20.7382 12.8879 22.2076L12.631 22.3628L12.3638 22.1973C10.0117 20.7382 7.82185 19.0324 5.81908 17.1005C4.4421 15.7143 3.38266 14.028 2.725 12.1691C1.56382 8.5314 2.93052 4.36965 6.76446 3.11497C7.06246 3.01221 7.36971 2.94027 7.67799 2.9002H7.8013C8.09005 2.85807 8.37675 2.83854 8.66448 2.83854H8.77751C9.4249 2.85807 10.0517 2.9711 10.659 3.17765H10.7197C10.7608 3.19717 10.7916 3.21875 10.8121 3.23828C11.0392 3.31124 11.254 3.39344 11.4595 3.50648L11.85 3.68117C11.9444 3.73149 12.0503 3.80838 12.1418 3.87484C12.1998 3.91694 12.252 3.95486 12.2919 3.97917C12.3086 3.98906 12.3257 3.99901 12.3429 4.00904C12.431 4.06048 12.5228 4.11405 12.6002 4.17338C13.7418 3.30096 15.128 2.82827 16.5564 2.83854ZM19.2898 10.2372C19.7111 10.2259 20.0707 9.88782 20.1016 9.45521V9.33292C20.1324 7.89327 19.26 6.58925 17.9334 6.08573C17.512 5.94084 17.0496 6.16794 16.8955 6.59953C16.7516 7.03112 16.9777 7.50381 17.4093 7.65692C18.068 7.90354 18.5088 8.55195 18.5088 9.27024V9.3021C18.4893 9.53741 18.5602 9.76451 18.7041 9.9392C18.8479 10.1139 19.0637 10.2156 19.2898 10.2372Z" fill="#5B93FF"/>
</svg>
