<svg width="22" height="22" viewBox="0 0 22 22" fill="none" xmlns="http://www.w3.org/2000/svg">
<path fill-rule="evenodd" clip-rule="evenodd" d="M9.79157 2.28504C9.10274 2.28504 8.51672 2.76371 8.35222 3.40888H13.8834C13.7189 2.76371 13.1329 2.28504 12.4441 2.28504H9.79157ZM15.4463 3.40885H17.4819C19.6409 3.40885 21.399 5.18827 21.399 7.37352C21.399 7.37352 21.3373 8.29861 21.3168 9.58686C21.3147 9.68884 21.2654 9.78874 21.1841 9.84909C20.6896 10.2143 20.2372 10.5161 20.1961 10.5369C18.4895 11.6816 16.5063 12.487 14.3935 12.8876C14.2557 12.9147 14.12 12.8429 14.0501 12.7201C13.4579 11.6941 12.3517 11.026 11.1179 11.026C9.89244 11.026 8.77592 11.6868 8.16625 12.7138C8.09532 12.8346 7.96166 12.9043 7.82492 12.8783C5.72964 12.4766 3.74643 11.6722 2.05005 10.5473L1.06307 9.86054C0.980822 9.80851 0.929416 9.71486 0.929416 9.6108C0.898573 9.08009 0.847168 7.37352 0.847168 7.37352C0.847168 5.18827 2.60523 3.40885 4.76425 3.40885H6.78962C6.98496 1.89999 8.24953 0.724121 9.79169 0.724121H12.4442C13.9864 0.724121 15.2509 1.89999 15.4463 3.40885ZM21.0493 11.8378L21.0082 11.8586C18.9314 13.253 16.4331 14.1791 13.8115 14.5642C13.4413 14.6162 13.0712 14.3769 12.9684 14.0022C12.7422 13.149 12.0123 12.587 11.1384 12.587H11.1281H11.1075C10.2336 12.587 9.50369 13.149 9.27751 14.0022C9.1747 14.3769 8.80458 14.6162 8.43446 14.5642C5.81279 14.1791 3.31449 13.253 1.23772 11.8586C1.22744 11.8482 1.12463 11.7858 1.04238 11.8378C0.94985 11.8898 0.94985 12.0147 0.94985 12.0147L1.02182 17.3217C1.02182 19.507 2.7696 21.276 4.92862 21.276H17.307C19.466 21.276 21.2138 19.507 21.2138 17.3217L21.2961 12.0147C21.2961 12.0147 21.2961 11.8898 21.2035 11.8378C21.1521 11.8066 21.0904 11.817 21.0493 11.8378ZM11.889 16.1978C11.889 16.6348 11.5497 16.9782 11.1179 16.9782C10.6964 16.9782 10.3468 16.6348 10.3468 16.1978V14.8554C10.3468 14.4288 10.6964 14.075 11.1179 14.075C11.5497 14.075 11.889 14.4288 11.889 14.8554V16.1978Z" fill="#605BFF"/>
</svg>
